<svg xmlns="http://www.w3.org/2000/svg" xmlns:xlink="http://www.w3.org/1999/xlink" width="1621" height="1621" viewBox="0 0 1621 1621">
  <defs>
    <clipPath id="clip-illus_1">
      <rect width="1621" height="1621"/>
    </clipPath>
  </defs>
  <g id="illus_1" data-name="illus 1" clip-path="url(#clip-illus_1)">
    <path id="Path_918" data-name="Path 918" d="M965.807,92.35C1149.133,222.757,1098,171.475,1098,383S852.2,766,549,766s-347.809,48.928-423.377-98.4,27.753-407.661,121.106-490.915C367.813,68.7,862.227,18.669,965.807,92.35Z" transform="translate(122 297)" fill="#f9a2a5" opacity="0.25"/>
    <path id="Path_919" data-name="Path 919" d="M582.5,0C904.206,0,1165,203.263,1165,454c0,73.967-37.873,167.972-118.352,239.779-135.421,120.831-347.554,164.444-526.073,180.1-76.938,6.749-154.47,48.721-205.7,23.106C72.663,775.884,250.511,514.021,49.388,308.573S260.794,0,582.5,0Z" transform="translate(235 403)" fill="rgba(254,236,236,0.83)"/>
    <path id="Path_920" data-name="Path 920" d="M10127.884,14383.884h235.169s9.949-3.464,15.192-9.367,5.778-14.247,5.778-14.247v-315.735H10268.8s-8.019-5.476-9.313-9.75,0-11.561,0-11.561v-202.4h-167.05s-11.974,3.313-14.962,13.076-2.391,26.5-2.391,26.5,10.261,3.688,10.162,2.79.6-15.941.6-15.941l172.84-.349-.4,188.819s2.2,7.264,8.549,8.813,106.6,1.451,106.6,1.451l-.045,254.576s-.138,2.818-4.913,4.921c-.006.011-238.657.927-239.018,1.029S10127.884,14383.884,10127.884,14383.884Z" transform="translate(-9482 -13386)" fill="#ce696c" opacity="0.59"/>
    <rect id="Rectangle_105" data-name="Rectangle 105" width="302" height="141" rx="19" transform="translate(339 680)" fill="#eb9497" opacity="0.14"/>
    <rect id="Rectangle_106" data-name="Rectangle 106" width="227" height="100" rx="5" transform="translate(653 807)" fill="#eb9497" opacity="0.14"/>
    <rect id="Rectangle_108" data-name="Rectangle 108" width="227" height="100" rx="5" transform="translate(653 696)" fill="#eb9497" opacity="0.14"/>
    <g id="Group_47" data-name="Group 47" transform="translate(-9482 -13386)">
      <path id="Path_789" data-name="Path 789" d="M9951.328,14312.642s12.512,4.014,2.392-8.866c-7.226-9.2,17.9-59.159,60.226-117.122,13.07-22.034,11.948-39.006,24.842-53.479.812-.911,1.6-1.843,2.458-2.9.153-.189.306-.38.648-.812,8.557-10.789,14.52-24.4,18.553-39.246,14.651-53.935,1.039-117.219,1.039-117.219s5.425,1.312,8.146,3.514c0,0,.554,6.6,5.317,9.152s9.466.932,13.736,1.061a44.563,44.563,0,0,0,13.155-2.136c2.516-.929,4.893-4.657,4.893-4.657l11.409,22.019s1.794,2.237,3.949,7.842,4.108,4.966,4.207,16.622.073,23.563-.724,25.755-1.194,4.806-2.689,9.19-1.295,42.245-1.295,42.245l1.987,30.335s-26.8,2.344-31.081,1.746-17.17,1.111-23.745-.084a52.463,52.463,0,0,0-16.018,0" fill="#e88588"/>
      <path id="Path_791" data-name="Path 791" d="M9950.872,14584.7l77.643-350.4a122.645,122.645,0,0,0,1.392-26.572c-.9-14.049-5.43-44.187-5.43-44.187l5.371-15.993s6.394-.217,8.361,5.47-1.05,15.5-.49,17.276,6.239-3.636,8.615-5.552,13.5-6.8,13.028-9.158-22.762-20.9-22.762-20.9,3.138-5.283,6.222-4.377,25.976,5.165,28.581,5.237,17.563.164,28.411,0a183.4,183.4,0,0,0,19.151-1.263l5.288-1,4.748,104.651-2.79,141.515-13.115,221.437h-21.626l-23.05-265.494-97.6,255.819Z" fill="#b54945"/>
      <path id="Path_792" data-name="Path 792" d="M10118.341,14170.088c.792.4-9.271,3.052-10.726,8.538s-.437,13.572-1.97,22.765-4.306,20.04-13.79,51.768-24.146,75.143-24.146,75.143l13.729,156.01s17.749-36.01,18.844-44.766,2.281-25.037,0-35.242-3.8-15.931-7.388-29.879a56.952,56.952,0,0,1,0-26.7s13.9-19.262,17.84-32.178-7.711-23.633-7.711-23.633v-14.521s12-21.778,15.317-32.386,4.5-16.126,3.315-34.82S10118.341,14170.088,10118.341,14170.088Z" fill="#a83732"/>
      <path id="Path_793" data-name="Path 793" d="M10035.682,14150.595c.229.611,1.992,1.608,2.146,3.142s0,16.86,0,16.86,3.833,2.99,7.281,2.224,5.749-3.3,6.668-4.062,6.438-10.807,6.438-10.807l1.227-2.529s-5.06-5.593-7.205-7.816-15.635-12.8-15.635-12.8l-50.446-44.62s-6.477,1.4-10.76,5.281a18.952,18.952,0,0,0-6.078,10.562c-.3,2.092,6.676,8.269,6.676,8.269l34.473,22.816Z" fill="#fbb8b2"/>
      <path id="Path_794" data-name="Path 794" d="M10064.109,13950.807l-2.669,22.6s10.562,12.392,12.918,13.4,20.656,1.34,26.139-1.431,5.777-3.979,5.777-3.979l.53-1.416-15.623-19.69.384-16.065s3.893,1.687,8.932-4.272,5.777-14.119,5.777-14.119.771-17.186,0-21.962a59.178,59.178,0,0,0-3.341-10.9l-11.752-1.308s-5.509-1.451-7.084-2.59a12.375,12.375,0,0,0-7.573-2.392c-.906,0-8.538-1.555-8.668,0s-.727,6.041-1.015,7.653-11.089,12.461-11.089,12.461-4.867-.61-6.17,0-1.99,3-1.99,3-1.479,7.288-.356,11.221a6.358,6.358,0,0,0,4.849,4.51s7.825-.979,8.549,0-1.99,3.139.59,7.134,9.73,8.845,9.73,8.845l1.813,1.943-1.813,3.755Z" fill="#ffc9ca"/>
      <path id="Path_795" data-name="Path 795" d="M10024.419,14163.446l4.783,34.473,1,15.567s-.125,11.632-.922,16.415-15.418,70.288-15.418,70.288-27.1-2.331-33.577,0-31.766,18.426-31.766,18.426-5.828-.648-3.5-6.477c1.014-2.535,4.014-15.568,10.9-30.428,8.708-18.781,21.646-40.053,21.646-40.053Z" fill="#fae0e0"/>
      <path id="Path_796" data-name="Path 796" d="M9944.876,14313.624s13.162-39.205,18.634-47.086,28.291-48.836,28.291-48.836l32.338-52.856,5.869-17.3s-27.267-17.017-28.907-15.874-2.566,11.465-8.289,29.8-16.2,43.632-16.2,43.632l-19.036,41.988s-10.436,29.732-11.445,34.448-5.252,20.9-5.083,26.961S9944.876,14313.624,9944.876,14313.624Z" fill="#fffffd"/>
      <path id="Path_797" data-name="Path 797" d="M10036.478,14134.595l-22.875-20.339h15.093v-12.3s-6-1.776-5.895-6.857-1.494-6.078,3.487-10.063,7.472-4.085,9.166-4.782,1.594-9.863,1.594-9.863l-1.021-33.428-36.565,64.364-13.3-11.483s-5.879,1.595-9.565,4.185-8.07,11.657-8.07,11.657l9.59,13.4-9.59-.6-12.729-13.749v-20.55l35.61-60.946s17.681-29.424,26.1-36.159,19.7-13.64,23.4-14.649,20.819.365,20.819.365,1.576,9.737,2.586,16.978,2.947,30.478,2.273,38.223,1.871,20.9-1.16,35.382-5.2,33.485-10.585,43.252-9.766,20.542-12.46,22.731S10036.478,14134.595,10036.478,14134.595Z" fill="#fffffd"/>
      <path id="Path_798" data-name="Path 798" d="M10061.795,13933.071c2.926,4.447,8.726,6.954,11.1,10.43s.579,1.665-1.595,3.474a30.29,30.29,0,0,1-7.1,3.762,26.182,26.182,0,0,1-14.7,0c-7.213-2.295-10.963-4-14.151-9.18s-7.273-20.425-7.273-20.425a53.547,53.547,0,0,1,0-18.059c1.7-9.913,3.014-17.512,6.8-21.6s6.227-7.323,13.251-11.956,6.626-4.932,14.846-6.575,18.033,0,18.033,0,8.2,2.023,12.279,6.308,10.038,12.222,10.238,14.017-.5,9.795-.5,9.795a67.909,67.909,0,0,1-13.326-1.815c-5.578-1.566-3.907-2.089-9.349-3.274s-12.074-2.187-12.415-1.469,1.878,3.694-1.145,8.777-10.945,11.556-10.945,11.556a9.564,9.564,0,0,0-6.81,1.194c-3,2.058-1.408,13.508-1.408,13.508s.926,2.191,4.379,3.216c1.752.52,4.458-.1,6.661,0a3.568,3.568,0,0,1,2.523.955C10061.036,13925.888,10058.869,13928.624,10061.795,13933.071Z" fill="#020100"/>
      <path id="Path_799" data-name="Path 799" d="M10128.768,14301.172c.674,0,12.668-1.454,16.035-5.494s3.536-38.558,3.536-38.558l-5.894-41.212s-4.461-9.177-4.63-30.224-1.685-103.724-1.685-103.724,6.4-18.225,6.9-27.318,0-30.309,0-30.309h66.173s9.093,1.514,15.66-4.547,22.983-32.708,22.983-32.708-4.777,3.261-9.895,2.56-11.113-5.135-11.726-9.044a34.16,34.16,0,0,1,0-8.431l-18.395,15.711-38.826-.8h-24.583s-6.736,1.941-13.64-5.131-32.665-25.257-32.665-25.257-7.408-.336-6.735,0,0,4.377,0,4.377,14.817,17.344,17.343,22.563,10.271,19.653,11.7,22.762,4.537,8.1,5.4,17.278.123,21.98,0,25.568-1.519,7.672-3.168,13.442-1.334,23.95-.726,44.2c.531,17.68,2.548,34.086,2.548,34.086l4.29,109.17Z" fill="#fffffd"/>
      <path id="Path_801" data-name="Path 801" d="M10118.942,14498.7l31.931,52.161s64.781,95.7,91.283,111.6,101.6,10.523,179.429,0,167.058-71.9,167.058-71.9l45.295-41.928,67.857-82.126h-144.688l-436.248.234Z" fill="#ce696c"/>
      <path id="Path_802" data-name="Path 802" d="M10478.76,14472.4l20.446,69.961h58.621l16.809-69.961Z" transform="translate(-1)" fill="#a83732"/>
      <path id="Path_803" data-name="Path 803" d="M10503.918,14472.4s-1.751-21.1-8.537-33.5-26.268-33.5-26.268-33.5-17.154-18.818-18.948-20.4-1.865-5.579-1.636-6.95,4.613-2.46,10.193-.382,19.539,8.619,19.539,8.619l19.544,12.258,8.419,1.169a5.512,5.512,0,0,0,2.525-5.02c-.168-3.514.674-19.745,0-20.915s-8.082-27.609-8.082-27.609-7.324-20.118-8.5-22.295-9.43-19.577-9.43-19.577,4-5.224,10.429,1.339,29.14,37.444,29.14,37.444,8.755,17.839,11.163,28.278,5.035,26.319,5.691,30.018,2.407,16.314,2.407,16.314l7.225,1.3,29.848-18.12a25.692,25.692,0,0,1,11.558,2.092c5.411,2.575,0,9.349,0,9.349s-15.937,18.447-19.978,24.472-5.679,9.816-10.6,17.946a79.834,79.834,0,0,0-7.542,17.665Z" fill="#ce696c"/>
      <path id="Path_804" data-name="Path 804" d="M10483.715,14387.367v-32.1s-.323-5.2,3.123-2.2,22.31,28.374,22.31,28.374l-.295,15.506s-1.179,3.043-2.948,2.771-5.465,1.143-9.728-1.533c0,0-1.791-1.1-2-1.237-4.06-2.549-11.437-7.547-11.437-7.547Z" fill="#9f3c2b"/>
      <path id="Path_805" data-name="Path 805" d="M10564.988,14388.66s-.63-4.631,1.133-8.133,11.8-17.635,11.8-17.635,11.938-11.439,12.4-11.709,4.6-4.51,4.6-4.51-.308-2.49-4.062-4.309-30.427,17.77-30.427,17.77l-5.672,5.184-7.97-.473s-2.03-8.4-2.561-11.715.165-21.8.764-28.629,9.344-46.154,9.344-46.154l8.095-22.605s1.146-5.375-.44-7.166-5.906,0-5.906,0-8.548,11.033-10.75,14.219-11.656,21.725-12.175,24.342-5.959,19.109-5.959,22.408-1.717,18.387-1.328,20.718,6.9,20,7.287,22.868,3.386,18.9,3.774,22.658,4.64,21.248,4.64,21.248,2.308,3.613,8.023,1.32S10564.988,14388.66,10564.988,14388.66Z" transform="translate(0 20.889)" fill="#b54945"/>
    </g>
    <path id="Path_922" data-name="Path 922" d="M9952.4,14586.264s-15.388,23.563-6.731,28.373,71.174,18.755,71.174,18.755,6.73-8.655-4.329-14.907-43.762-25.97-43.762-25.97Z" transform="translate(-9483 -13389)" fill="#303030"/>
    <path id="Path_923" data-name="Path 923" d="M9952.951,14586.264s-16.287,23.563-7.125,28.373,75.331,18.755,75.331,18.755,7.123-8.655-4.582-14.907-46.318-25.97-46.318-25.97Z" transform="matrix(0.966, -0.259, 0.259, 0.966, -12779.209, -10300.922)" fill="#303030"/>
    <rect id="Rectangle_104" data-name="Rectangle 104" width="302" height="212" rx="19" transform="translate(1018 584)" fill="#ce696c" opacity="0.59"/>
    <rect id="Rectangle_107" data-name="Rectangle 107" width="227" height="100" rx="5" transform="translate(614 473)" fill="#eb9497" opacity="0.14"/>
    <rect id="Rectangle_109" data-name="Rectangle 109" width="476" height="336" rx="23" transform="translate(778 324)" fill="#df7e81"/>
    <g id="Group_48" data-name="Group 48" transform="translate(-9482 -13386)">
      <circle id="Ellipse_29" data-name="Ellipse 29" cx="70" cy="70" r="70" transform="translate(10299 13743)" fill="#fbebeb"/>
      <path id="Path_806" data-name="Path 806" d="M10337,13820.772l-22.865,19.413s10.661,14.547,16.445,18.689,8.737,8.312,21.714,10.9,18.352,3.325,32.082,0,19.839-9.385,24.122-13.37a85.154,85.154,0,0,0,9.085-9.99,44.871,44.871,0,0,0,4.38-7.179l-23.637-16.872s-7.388,10.442-10.974,13.133-7.888,5.978-9.581,5.978-8.241,2.72-13.322,1.025-15.418-7-15.418-7-5.012-6.07-6.208-8.162S10337,13820.772,10337,13820.772Z" fill="#f9a2a5"/>
      <ellipse id="Ellipse_30" data-name="Ellipse 30" cx="35.5" cy="43" rx="35.5" ry="43" transform="translate(10333 13757)" fill="#ffc9ca"/>
      <rect id="Rectangle_61" data-name="Rectangle 61" width="219" height="52" rx="26" transform="translate(10483 13750)" fill="#fbebeb"/>
      <rect id="Rectangle_62" data-name="Rectangle 62" width="399" height="11" rx="5.5" transform="translate(10299 13905)" fill="#fbebeb"/>
      <rect id="Rectangle_63" data-name="Rectangle 63" width="399" height="11" rx="5.5" transform="translate(10299 13946)" fill="#fbebeb"/>
      <rect id="Rectangle_64" data-name="Rectangle 64" width="399" height="11" rx="5.5" transform="translate(10299 13987)" fill="#fbebeb"/>
    </g>
    <path id="Path_921" data-name="Path 921" d="M10226.4,13972.614l40.749-46.977s5.727-13.135,6.735-14.145,21.384-21.553,21.384-21.553,3.922-1.1,3.922,3.027-9.992,9.44-13.323,16.485,0,11.7,0,11.7,11.673-.333,15.564.935,0,4.136,0,4.136h-8.906l-4.157,7.85-13.47,8.29-5.57,2.979-14.248,17.486-12.891,26.871c-.689.536-6.827.159-11.732-2.83-2.379-1.45-4.135-4.905-4.6-8.312A15.067,15.067,0,0,1,10226.4,13972.614Z" transform="translate(-9482 -13386)" fill="#f0cac4"/>
    <circle id="Ellipse_47" data-name="Ellipse 47" cx="27" cy="27" r="27" transform="translate(724 931)" fill="#fbebeb" opacity="0.47"/>
  </g>
</svg>
