<svg xmlns="http://www.w3.org/2000/svg" xmlns:xlink="http://www.w3.org/1999/xlink" width="1621" height="1621" viewBox="0 0 1621 1621">
  <defs>
    <linearGradient id="linear-gradient" x1="0.5" y1="1" x2="0.5" gradientUnits="objectBoundingBox">
      <stop offset="0" stop-color="gray" stop-opacity="0.251"/>
      <stop offset="0.54" stop-color="gray" stop-opacity="0.122"/>
      <stop offset="1" stop-color="gray" stop-opacity="0.102"/>
    </linearGradient>
    <clipPath id="clip-illus_2">
      <rect width="1621" height="1621"/>
    </clipPath>
  </defs>
  <g id="illus_2" data-name="illus 2" clip-path="url(#clip-illus_2)">
    <g id="undraw_doctor_kw5l" transform="translate(223.001 386.985)">
      <path id="Path_827" data-name="Path 827" d="M739.715,206.512c-75.336-2.618-147.145-26.941-215.611-53.546S387.779,96.878,314.206,82.78C266.9,73.7,212.806,72.426,174.7,97.787c-36.678,24.4-48.525,66.518-54.9,105.6-4.793,29.407-7.574,60.351,5.529,87.887,9.121,19.107,25.307,35.174,36.5,53.481,38.95,63.694,11.415,142.244-30.8,204.488-19.8,29.213-42.769,57.008-58.047,88.071s-22.353,66.648-8.98,98.328c13.254,31.377,44.825,54.985,79.036,71.571C212.524,840.87,294.4,850.5,374.233,856.017c176.726,12.085,354.4,6.849,531.594,1.612,65.577-1.948,131.446-3.906,195.952-14.065,35.823-5.637,72.815-14.574,98.825-36.148,33.01-27.395,41.2-73.767,19.075-108.119-37.111-57.6-139.712-71.917-165.657-133.74-14.271-34.027.389-71.939,21.141-103.5,44.5-67.7,119.112-127.1,123.039-204.488,2.7-53.156-33.162-106.377-88.622-131.533-58.122-26.389-138.727-23.056-181.605,20.557C883.82,191.527,806.222,208.817,739.715,206.512Z" transform="translate(-56.94 -57.172)" fill="#f9eaea"/>
      <path id="Path_828" data-name="Path 828" d="M309.3,797.745s-59.507-44.987-70.749-102.212a113.107,113.107,0,0,0-34.85-62.439A190.43,190.43,0,0,0,175.82,612.32" transform="translate(-47.198 -13.289)" fill="none" stroke="#535461" stroke-miterlimit="10" stroke-width="2"/>
      <path id="Path_829" data-name="Path 829" d="M171.261,579.487c5.215,7.054,7.574,36.949,7.574,36.949s-27.882-10.982-33.108-18.025a15.891,15.891,0,1,1,25.534-18.923Z" transform="translate(-49.92 -16.507)" fill="#a83732"/>
      <path id="Path_830" data-name="Path 830" d="M217.714,601.808c.541,8.753-13.708,35.131-13.708,35.131s-17.452-24.387-18-33.14a15.882,15.882,0,1,1,31.7-1.991Z" transform="translate(-46.366 -15.371)" fill="#a83732"/>
      <path id="Path_831" data-name="Path 831" d="M262.42,664.744c-3.938,7.833-29.57,23.413-29.57,23.413s-2.737-29.862,1.2-37.7a15.882,15.882,0,1,1,28.371,14.283Z" transform="translate(-42.6 -10.88)" fill="#a83732"/>
      <path id="Path_832" data-name="Path 832" d="M285.74,719.316c-2.564,8.385-25.188,28.066-25.188,28.066s-7.758-28.964-5.193-37.36a15.885,15.885,0,1,1,30.381,9.294Z" transform="translate(-40.722 -6.204)" fill="#a83732"/>
      <path id="Path_833" data-name="Path 833" d="M179.843,655.146c8.656,1.169,36.018-11.187,36.018-11.187s-23.089-19.129-31.788-20.3a15.884,15.884,0,1,0-4.23,31.485Z" transform="translate(-47.997 -12.372)" fill="#a83732"/>
      <path id="Path_834" data-name="Path 834" d="M208.256,718.841c8.656-1.482,31.019-21.444,31.019-21.444s-27.763-11.339-36.408-9.857a15.883,15.883,0,1,0,5.41,31.3Z" transform="translate(-46.061 -7.136)" fill="#a83732"/>
      <path id="Path_835" data-name="Path 835" d="M243.8,777.056c8.775,0,34.2-15.894,34.2-15.894s-25.437-15.872-34.211-15.872a15.883,15.883,0,1,0,0,31.766Z" transform="translate(-42.929 -2.393)" fill="#a83732"/>
      <path id="Path_836" data-name="Path 836" d="M833.49,435.958s36.678-64.971,91.966-83.689a113.1,113.1,0,0,0,57.257-42.834A189.706,189.706,0,0,0,999.58,279" transform="translate(6.698 -40.605)" fill="none" stroke="#535461" stroke-miterlimit="10" stroke-width="2"/>
      <path id="Path_837" data-name="Path 837" d="M1021.777,270.066c-6.3,6.1-35.607,12.421-35.607,12.421s7.2-29.1,13.492-35.217a15.882,15.882,0,1,1,22.117,22.8Z" transform="translate(19.21 -43.572)" fill="#2f2f48"/>
      <path id="Path_838" data-name="Path 838" d="M1006.536,319.018c-8.656,1.709-36.646-8.915-36.646-8.915s21.855-20.557,30.457-22.234a15.883,15.883,0,1,1,6.189,31.149Z" transform="translate(17.875 -39.909)" fill="#2f2f48"/>
      <path id="Path_839" data-name="Path 839" d="M950.055,371.637c-8.288-2.867-27.125-26.194-27.125-26.194s29.213-6.686,37.522-3.819a15.882,15.882,0,1,1-10.4,30.015Z" transform="translate(14.027 -35.531)" fill="#2f2f48"/>
      <path id="Path_840" data-name="Path 840" d="M899.117,402.057C890.461,400.628,868,380.775,868,380.775s27.687-11.534,36.332-10.105a15.9,15.9,0,0,1-5.161,31.377Z" transform="translate(9.526 -33.102)" fill="#2f2f48"/>
      <path id="Path_841" data-name="Path 841" d="M947.3,288.591c-.011,8.775,15.9,34.233,15.9,34.233S979.1,297.4,979.1,288.635a15.883,15.883,0,1,0-31.755,0Z" transform="translate(16.024 -41.151)" fill="#2f2f48"/>
      <path id="Path_842" data-name="Path 842" d="M887.912,325.142c2.618,8.374,25.383,27.9,25.383,27.9s7.574-29.018,4.934-37.392a15.883,15.883,0,0,0-30.295,9.489Z" transform="translate(11.112 -38.47)" fill="#2f2f48"/>
      <path id="Path_843" data-name="Path 843" d="M835.015,368.182c1.169,8.656,20.3,31.777,20.3,31.777s12.345-27.319,11.177-36.007a15.883,15.883,0,1,0-31.474,4.23Z" transform="translate(6.806 -34.802)" fill="#2f2f48"/>
      <path id="Path_844" data-name="Path 844" d="M1021.777,270.066c-6.3,6.1-35.607,12.421-35.607,12.421s7.2-29.1,13.492-35.217a15.882,15.882,0,1,1,22.117,22.8Z" transform="translate(19.21 -43.572)" fill="#a83732"/>
      <path id="Path_845" data-name="Path 845" d="M1006.536,319.018c-8.656,1.709-36.646-8.915-36.646-8.915s21.855-20.557,30.457-22.234a15.883,15.883,0,1,1,6.189,31.149Z" transform="translate(17.875 -39.909)" fill="#a83732"/>
      <path id="Path_846" data-name="Path 846" d="M950.055,371.637c-8.288-2.867-27.125-26.194-27.125-26.194s29.213-6.686,37.522-3.819a15.882,15.882,0,1,1-10.4,30.015Z" transform="translate(14.027 -35.531)" fill="#a83732"/>
      <path id="Path_847" data-name="Path 847" d="M899.117,402.057C890.461,400.628,868,380.775,868,380.775s27.687-11.534,36.332-10.105a15.9,15.9,0,0,1-5.161,31.377Z" transform="translate(9.526 -33.102)" opacity="0.25"/>
      <path id="Path_848" data-name="Path 848" d="M947.3,288.591c-.011,8.775,15.9,34.233,15.9,34.233S979.1,297.4,979.1,288.635a15.883,15.883,0,1,0-31.755,0Z" transform="translate(16.024 -41.151)" fill="#a83732"/>
      <path id="Path_849" data-name="Path 849" d="M887.912,325.142c2.618,8.374,25.383,27.9,25.383,27.9s7.574-29.018,4.934-37.392a15.883,15.883,0,0,0-30.295,9.489Z" transform="translate(11.112 -38.47)" opacity="0.25"/>
      <path id="Path_850" data-name="Path 850" d="M835.015,368.182c1.169,8.656,20.3,31.777,20.3,31.777s12.345-27.319,11.177-36.007a15.883,15.883,0,1,0-31.474,4.23Z" transform="translate(6.806 -34.802)" opacity="0.25"/>
      <path id="Path_851" data-name="Path 851" d="M835.44,438.842s7.206-74.265,50.116-113.756a113.14,113.14,0,0,0,34.99-62.363,189.638,189.638,0,0,0,3.127-34.622" transform="translate(6.857 -44.776)" fill="none" stroke="#535461" stroke-miterlimit="10" stroke-width="2"/>
      <path id="Path_852" data-name="Path 852" d="M944.163,206.592c-3.246,8.136-27.525,25.794-27.525,25.794s-5.215-29.526-1.937-37.663a15.887,15.887,0,1,1,29.461,11.9Z" transform="translate(13.264 -48.326)" fill="#a83732"/>
      <path id="Path_853" data-name="Path 853" d="M950.371,257.867c-7.173,5.042-37.111,6.7-37.111,6.7s11.663-27.633,18.837-32.675a15.883,15.883,0,1,1,18.274,25.967Z" transform="translate(13.235 -44.725)" fill="#a83732"/>
      <path id="Path_854" data-name="Path 854" d="M920.583,328.844c-8.742.736-35.423-12.983-35.423-12.983s24.019-17.96,32.762-18.7a15.885,15.885,0,0,1,2.661,31.658Z" transform="translate(10.932 -39.121)" fill="#a83732"/>
      <path id="Path_855" data-name="Path 855" d="M886.2,377.3c-8.493,2.164-37.1-6.784-37.1-6.784s20.633-21.758,29.126-23.965A15.883,15.883,0,1,1,886.2,377.3Z" transform="translate(7.977 -35.111)" fill="#2f2f48"/>
      <path id="Path_856" data-name="Path 856" d="M884.182,253.441c3.549,8.017,28.369,24.885,28.369,24.885s4.22-29.689.671-37.706a15.883,15.883,0,0,0-29.04,12.854Z" transform="translate(10.752 -44.497)" fill="#a83732"/>
      <path id="Path_857" data-name="Path 857" d="M844.749,311c5.788,6.589,34.5,15.223,34.5,15.223s-4.847-29.591-10.636-36.18A15.882,15.882,0,1,0,844.748,311Z" transform="translate(7.297 -40.143)" fill="#2f2f48"/>
      <path id="Path_858" data-name="Path 858" d="M813.716,371.722c4.587,7.465,31.431,20.828,31.431,20.828s.227-29.981-4.328-37.457a15.883,15.883,0,0,0-27.049,16.63Z" transform="translate(4.909 -34.956)" fill="#2f2f48"/>
      <path id="Path_859" data-name="Path 859" d="M784.44,155.576c1.8-6.589,3.96-13.211,5.475-19.886C788.1,142.366,785.922,149.009,784.44,155.576Z" transform="translate(2.678 -52.349)" fill="url(#linear-gradient)"/>
      <path id="Path_860" data-name="Path 860" d="M820.209,225.355c-.152-.26-.26-.519-.379-.757h0c0-.108-.108-.195-.151-.3a6.8,6.8,0,0,1-.725.292c-.476.184-.963.357-1.461.5s-.7.216-1.082.3a6.3,6.3,0,0,1-.963.249l.086.195c.4-.087.79-.162,1.19-.27l.108,1.342c.454,0,.876-.065,1.287-.065a5.307,5.307,0,0,1,.584,0h2.164C820.641,226.35,820.4,225.842,820.209,225.355Zm219.636,349.61c-5.085-6.849-15.234-80.356-15.234-80.356s-19.962-52.269-14.52-73.129-14.866-74.233-14.866-74.233-13.416-5.832-14.141-14.487c0,0-54.779-17.311-57.343-30.295-2.077-10.646-36.051-18.285-48.255-20.7-3.722-15.017-7.465-29.029-10.224-36.678-.747-2.38-1.45-4.436-2.1-6.059-4.663-11.9-19.075-12.983-29.526-12.031a16.1,16.1,0,0,0-2.478-5.659,3.105,3.105,0,0,0-.985-1.5,5.752,5.752,0,0,0-.714-.519,3.42,3.42,0,0,0-.736-.93,5.2,5.2,0,0,0-.974-.693,6.5,6.5,0,0,0-.779-.357,10.4,10.4,0,0,0-1.937-.53,15.948,15.948,0,0,0-2.337-.3,14.227,14.227,0,0,0,4.988-3.646,10.4,10.4,0,0,0,2.045-3.765,11.081,11.081,0,0,0,.455-3.549,9.176,9.176,0,0,1-.974,1.4c.454-4.793-2.077-9.662-3.527-14.433a42.706,42.706,0,0,1-.952-19.1h0c1.45-9.586,5.042-19.28,7.476-29.04a.707.707,0,0,0,0-.162,75.391,75.391,0,0,0,2.359-14.812c.422-10.095-2.164-20.168-6.319-29.364-3.689-8.147-9.132-16.164-17.463-19.475-6.189-2.5-13.124-2.1-19.789-2.51-14.953-.93-29.213-6.189-43.43-10.971s-28.845-9.132-43.808-8.3-30.359,8.05-37.187,21.293c-2.164,4.133-3.408,8.731-5.994,12.616-4.847,7.325-13.524,10.993-20.763,16.045s-13.611,12.226-16.229,20.784A27.731,27.731,0,0,0,623,143.743h0a25.459,25.459,0,0,0,.909,3.138,22.235,22.235,0,0,0,4.706,7.693,22.948,22.948,0,0,0,5.345,4.144h0a31.452,31.452,0,0,0,7.9,3.073c-.1.325-.195.671-.3,1.006-.173.552-.325,1.082-.487,1.677-.357,1.331-.693,2.683-.974,4.046a1.261,1.261,0,0,0,0,.292,88.363,88.363,0,0,0-1.991,18.728,86.451,86.451,0,0,0,.454,8.915h0c4.328,43.906,40.573,78.539,85.355,80.789,1.536.076,3.083.119,4.652.119h2.164c.7.93,1.4,1.883,2.056,2.813s1.266,1.883,1.839,2.813l-1.569-1.623h0l-1.569-1.439a12.746,12.746,0,0,1-1.417,1.634,26.313,26.313,0,0,0-3.127-.887h0c-4.49-1-11.328-1.363-20.33,1.352-8.277,2.478-18.393,7.574-30.23,17.257l-57.679,34.622-31.2,18.977-11.241,27.481s-8.45,32.653-17.852,70.067c-.368.108-.725.216-1.082.346a20.232,20.232,0,0,0-2.294-.13,21.087,21.087,0,0,0-21.12,20.243c-18.7,22.721-19.756,45.442-15.364,55.872h0a14.885,14.885,0,0,0,1.493,2.781c2.878,4.155,8.255,14.866,13.708,26.281-.141.941-.227,1.731-.271,2.326a5.758,5.758,0,0,0,0,.584s3.246,49.023-7.574,63.078c-2.37,3.062-2.012,7.087,0,11.544h0c7.249,16.034,35.91,37.446,35.91,37.446s34.373-.184,53.524-2.272c-.054,1.926-.1,3.841-.141,5.713-.433,18.913-.433,34.763-.433,34.763l-.714,19.832s-6.492,41.8-9.738,53.318c-2.045,7.227.314,74.146,2.37,123.342H945.358c3.982-29.1-1.634-117.532-1.634-117.532s-5.334-22.862-5.529-42.791a.163.163,0,0,1,0-.141c0-1.742,0-3.441.065-5.107l2.456-.087,4.414-.151h.4s.108-.411.357-1.082h0a20.68,20.68,0,0,1,2.37-4.728c1.883-2.781,4.825-5.507,9.251-5.691,2.445-.1,6.232-2.077,10.506-5a.2.2,0,0,0,.087,0c11.5-7.779,26.7-22.137,30.392-24.5,5.074-3.246,29.375-24.885,29.375-24.885s3.625-4.587,7.487-10.116l.141-.195c4.8-6.925,9.911-15.2,8.656-17.809-2.164-4.674,1.45-15.851,1.45-15.851C1056.885,609.187,1044.929,581.814,1039.844,574.965ZM830.628,242.179a4.332,4.332,0,0,1,.195,1c-.27-.357-.541-.736-.811-1.082l-.26-.346-.184-.26.411-.563V241h0a3.753,3.753,0,0,1,.649,1.179Zm-3.635-9.586c-1.179.238-2.11.454-2.716.617-.768-1.363-1.5-2.727-2.164-4.111a31.376,31.376,0,0,1,4.88,3.495Zm-2.034,1.709a.227.227,0,0,1,0-.065l.087.065h0c.444.292.876.573,1.277.866h0c.357.26.682.509,1.006.768a10.344,10.344,0,0,1-.692,1.082c-.379-.6-.736-1.169-1.082-1.764A3.9,3.9,0,0,1,824.958,234.3Zm-6.492-13.351a32.015,32.015,0,0,1,6.286,0h0a4.761,4.761,0,0,1,.812.1h0a8.992,8.992,0,0,1,1.72.444,12.571,12.571,0,0,1,2.283,6.07l-.584.087-.573.108c-1.082.184-2.164.368-3.008.541l-1.082.227c-1.439.314-2.272.552-2.3.563-.141-.292-.281-.563-.433-.844-.238-.465-.487-.941-.7-1.407s-.5-1-.725-1.482c-.151-.26-.26-.519-.379-.757h0c0-.108-.108-.195-.151-.3a2.6,2.6,0,0,1-.162-.357c-.66-1.342-1.266-2.683-1.85-4-.065-.13-.119-.27-.173-.4l.822-.054v.281ZM560.324,892.128c-.086-16.11-1.255-33.54-4.5-49.9-1.385-6.957-2.813-13.914-4.263-20.752-.368-1.71-.725-3.4-1.082-5.085l-3.332.444h-.3c-9.088-42.856-18.588-80.616-18.588-80.616s-18.869-72.047-16.684-77.792c.281-.747-.076-2.759-.876-5.713-4.566-16.381-23.63-61.52-30.295-76.948h0a.609.609,0,0,0-.076-.195h0c-1.082-2.586-1.861-4.328-2.1-4.836l1.569-23.024.087-1.385.206-2.943-.087-.076.087-1.363s-16.467-13.5-44.36-23.251c-1.082-.39-2.229-.768-3.365-1.136,1.4-9.316,3.246-19.832,5.659-30.078.227-1.028.476-2.023.736-3.029h0c.227-1.006.487-1.98.747-2.965.411-1.6.855-3.181,1.309-4.739,1.5-.476,2.986-1.006,4.447-1.569l.563-.216a79.848,79.848,0,0,0,48.688-93.048h0a79.4,79.4,0,0,0-13.936-29.375h0c-.5-.671-1.028-1.342-1.558-2s-1.168-1.4-1.764-2.067c3.127-7.108,6.816-13.871,7.119-20.784a21.325,21.325,0,0,0,0-2.629h0v-.108c-.4-4.447-2.369-8.948-6.957-13.676-6.7-6.935-16.229-10.452-25.761-12.139s-19.248-1.731-28.834-2.867c-15.894-1.9-31.377-6.805-47.27-8.309a112.317,112.317,0,0,0-57.159,9.738c-11.826,5.41-23.8,14.866-24.517,27.839-.584,10.722,6.881,21,5,31.593-1.872,10.408-12.475,18.6-11.544,29.126.357,4.111,2.467,7.79,5.107,11.068h0c.909,1.082,1.872,2.164,2.867,3.246,3.852,4.079,8.093,8,10.246,13.135.087.216.173.433.249.649,1.829,5.074,1.006,11.49-3.516,14.4a.163.163,0,0,1,.054.076h0c.065.087.13.151.184.238a.076.076,0,0,0,0-.054,11.836,11.836,0,0,0,6.178,3.852l.92.281c-.747.811-1.45,1.655-2.164,2.543l-.465.617a45.031,45.031,0,0,0-3.246,5.031c-.552.974-1.082,1.948-1.526,2.921a36.7,36.7,0,0,0-3.192,9.38c-1.158,7.163.476,14.628-1.277,21.639-2.164,8.656-9.013,15.3-12.875,23.338-7.314,15.147-3.17,32.924-1.7,49.651,2,22.721-1.244,45.539-4.479,68.109q-2.575,18-5.15,36.04l-12.983,90.537c-1.58,11.057-3.451,22.721-10.819,31.258h.076a.1.1,0,0,1-.076.087,22.612,22.612,0,0,0,6.968,1.8h0c9.619.963,19.81-3.689,28.466-8.775a134.539,134.539,0,0,0,19.4-13.622q-1.331,4.869-2.856,10.592a.588.588,0,0,1,0,.108h0c-12.215,46.524-31.863,131.814-31.863,131.814s-1.785,3.711-4.1,9.24h305.11c-3.57-4.328-6.892-8.472-9.489-11.815ZM334.413,461.944c.076-.13.13-.249.206-.368v2.348h0a8.007,8.007,0,0,1-.173,1.331v.1l1.082.4,1.255.519h0q11.122,4.393,22.526,7.952c.779.249,1.569.487,2.359.714l.162,1.342c.195,1.374.379,2.77.552,4.165v.108c.487,3.863.963,7.714,1.385,11.479,0,0-19.865-7.574-19.616,3.927a5.611,5.611,0,0,0,0,.617,5.123,5.123,0,0,0,0,.822c.184,8.958,2.986,14.271,3.549,17a.768.768,0,0,1-.173.3,5.918,5.918,0,0,0-.476,3.343,32.88,32.88,0,0,0,.454,5.778c-.584.357-1.158.714-1.731,1.082h0c-.433.271-.844.573-1.266.876a160.666,160.666,0,0,0-10.376-26.746c-2.975-6.124-6.319-12.507-6.286-19.226a10.865,10.865,0,0,1,.054-1.32,22.722,22.722,0,0,1,1.1-5.724c.249-.7.519-1.4.822-2.077a50.947,50.947,0,0,1,2.369-4.739h0c.563-1.017,1.158-2.023,1.731-3.04.184-.3.357-.617.53-.92Zm485.8-236.59c-.152-.26-.26-.519-.379-.757h0c0-.108-.108-.195-.151-.3a6.8,6.8,0,0,1-.725.292c-.476.184-.963.357-1.461.5s-.7.216-1.082.3l-.963.249.087.195c.4-.087.79-.162,1.19-.27l.108,1.342c.454,0,.876-.065,1.287-.065h2.748C820.641,226.35,820.4,225.842,820.209,225.355Z" transform="translate(-41.14 -58.66)" fill="#ce696c" opacity="0.13"/>
      <path id="Path_861" data-name="Path 861" d="M562.2,360.046l-6.492,2.867S513.39,527.3,513.39,540.591s89.726,87.216,89.726,87.216l14-94.5S597.014,316.606,562.2,360.046Z" transform="translate(-19.534 -34.435)" fill="#fffffd"/>
      <path id="Path_862" data-name="Path 862" d="M745.959,321.03l-37.49-19.562a75.1,75.1,0,0,0-10.993-25.047c-5.486-7.92-12.778-15.7-21.866-19.756-22.97-10.3,97.159-64.365,97.159-64.365a195.444,195.444,0,0,0,6.676,19.151c6.189,15.277,16.456,35.034,29.689,40.66C831.628,261.685,745.959,321.03,745.959,321.03Z" transform="translate(-6.48 -47.71)" fill="#ffc9ca"/>
      <path id="Path_863" data-name="Path 863" d="M779.446,211.451a89.564,89.564,0,0,1-81.968,64.971c-5.486-7.92-12.778-15.7-21.866-19.756-22.97-10.3,97.159-64.365,97.159-64.365a195.426,195.426,0,0,0,6.676,19.151Z" transform="translate(-6.48 -47.71)" opacity="0.1"/>
      <path id="Path_864" data-name="Path 864" d="M788.039,191.548a89.088,89.088,0,1,1-26.1-63.4,89.514,89.514,0,0,1,26.1,63.4Z" transform="translate(-11.698 -55.105)" fill="#ffc9ca"/>
      <path id="Path_865" data-name="Path 865" d="M739.7,243.233l-24.409,56.954-21.531,37.8h-68.92L604.74,286.3l8.147-53.6h52.637l33.984-1.915,11.479-3.83,7.4,4.2Z" transform="translate(49.558 18.598)" fill="#a54d4d"/>
      <path id="Path_866" data-name="Path 866" d="M783.125,230.493s15.223,3.246,1.59,14.422-60.665,46.719-60.665,46.719,16.521,14.715,13.1,31.95l54.736-30.511,9.738-48.817S802.719,229.584,783.125,230.493Z" transform="translate(-2.271 -44.583)" opacity="0.1"/>
      <path id="Path_867" data-name="Path 867" d="M737.462,287l-34.817,5.745s7.184,26.562,3.592,34.1a5.053,5.053,0,0,0-.271.725l-14.206,38.4,10.646,30.154,36.851-50.257L726.7,326.848s13.276-17.592,21.174-23.695S737.462,287,737.462,287Z" transform="translate(-4.917 -39.949)" opacity="0.1"/>
      <path id="Path_868" data-name="Path 868" d="M737.462,285.63l-34.817,5.734s7.184,26.562,3.592,34.1a5.053,5.053,0,0,0-.271.725l-14.206,38.4,10.646,30.154,36.851-50.289L726.7,325.435s13.276-17.592,21.174-23.695S737.462,285.63,737.462,285.63Z" transform="translate(-4.917 -40.061)" fill="#f9a2a5"/>
      <path id="Path_869" data-name="Path 869" d="M784.585,227.843s15.223,3.246,1.58,14.422-62.115,49.586-62.115,49.586S742,303.7,738.591,320.923l54.736-30.5,9.738-48.818S804.147,226.934,784.585,227.843Z" transform="translate(-2.271 -44.8)" fill="#a54d4d"/>
      <path id="Path_870" data-name="Path 870" d="M700.853,273.18s3.322,6.21,17.982,17.409c0,0-24.409,12.983-15.072,31.236l-37.338-9.738-5.745-17.95Z" transform="translate(-7.464 -41.081)" opacity="0.1"/>
      <path id="Path_871" data-name="Path 871" d="M699.522,271.86s3.322,6.21,17.982,17.409c0,0-24.409,12.918-15.072,31.225l-37.327-9.738-5.745-17.939Z" transform="translate(-7.572 -41.19)" fill="#a54d4d"/>
      <path id="Path_872" data-name="Path 872" d="M796.642,301.575l-24.409,56.954-21.488,37.8H681.783l-20.1-51.685,8.136-53.6h14.639c-.238,12.507,4.328,27.2,4.036,32.664-.5,8.98,13.395,57.43,13.395,57.43s29.072-47.022,40.551-51.209c7.217-2.629,22.5-24.506,32.88-40.432Z" transform="translate(-7.382 -39.744)" opacity="0.1"/>
      <path id="Path_873" data-name="Path 873" d="M901.737,602.9l-2.478,3.116s17.95,90.094,12.983,110.554A58.091,58.091,0,0,0,910.8,727.8v.162c-.876,20.817,5.41,47.833,5.41,47.833s5.02,79.631,2.164,112.382H582.3c-1.969-48.428-4.09-111.17-2.164-118.127,3.246-11.479,9.738-53.124,9.738-53.124l.714-19.735s0-19.075.584-40.324c.249-9.554.617-19.583,1.147-28.477.682-11.187,1.634-20.611,2.943-25.242a55.651,55.651,0,0,0,1.385-10.69,5.52,5.52,0,0,1,.065-1.028c0-1.082.108-2.25.151-3.451V586.9c.206-6.968.13-15.234-.1-23.8v-1.417c-.184-6.427-.454-12.983-.757-19.215-.941-19.475-2.164-35.942-2.164-35.942L552.57,369.766l11.122-27.395,30.868-18.913L651.633,289c27.839-22.883,46.167-20.135,53.156-17.625a18.491,18.491,0,0,1,1.991.811c.216.108.389.195.552.292a4.577,4.577,0,0,1,.638.368h0a13.178,13.178,0,0,0-4.847,3.992,17.658,17.658,0,0,0-3,6.492,30.2,30.2,0,0,0-.768,4.425c-.141,1.569-.195,3.192-.195,4.826a83.681,83.681,0,0,0,.92,10.7c0,.065,0,.151,0,.238.357,2.532.8,5.009,1.233,7.336a.491.491,0,0,0,0,.119c.5,2.716,1,5.226,1.331,7.39.065.39.119.747.173,1.082a24.728,24.728,0,0,1,.335,4.328,52.594,52.594,0,0,0,1.407,10.387c.281,1.428.606,2.954.963,4.544.487,2.164,1.017,4.523,1.59,6.924.314,1.32.649,2.683,1,4.036.13.541.27,1.082.4,1.634l.216.855c2.3,9.164,4.8,18.285,6.34,23.8.909,3.246,1.482,5.247,1.482,5.247s16.294-26.345,29.3-41.341c.195-.216.368-.422.552-.617,1.288-1.482,2.553-2.835,3.765-4.025,2.651-2.64,5.031-4.523,6.946-5.215a7.568,7.568,0,0,0,1.179-.552c5.323-3.019,13.914-13.979,21.953-25.458.79-1.082,1.558-2.261,2.337-3.376,1.785-2.575,3.516-5.161,5.15-7.639,1.255-1.893,2.456-3.733,3.592-5.485,5.41-8.418,9.218-14.693,9.218-14.693l7.509-.335,1.309-.065h.876l34.092-1.58s1.471.249,3.9.736a.693.693,0,0,1,.4.087c12.1,2.4,45.7,10.008,47.757,20.557,2.51,12.918,56.716,30.154,56.716,30.154.714,8.656,13.99,14.357,13.99,14.357s20.1,53.124,14.725,73.94c-5.312,20.557,13.827,71.409,14.336,72.837h0l-3.668,4.631Z" transform="translate(-16.324 -41.364)" fill="#fffffd"/>
      <path id="Path_874" data-name="Path 874" d="M782.091,227.173s33.183-9.413,40.725,9.965,24.409,97.635,24.409,97.635-43.8,8.255-55.277,0a33.075,33.075,0,0,0-23.338-6.1l-24.766,16.868-7.314-2.164s39.621-58.9,48.233-78.917S796.286,235.493,782.091,227.173Z" transform="translate(-1.248 -45.039)" opacity="0.1"/>
      <path id="Path_875" data-name="Path 875" d="M780.758,223.173s33.205-9.413,40.779,9.965,24.409,97.635,24.409,97.635-43.787,8.255-55.277,0a33.043,33.043,0,0,0-23.327-6.1l-24.787,16.868-7.314-2.164s39.621-58.9,48.233-78.917S794.953,231.515,780.758,223.173Z" transform="translate(-1.354 -45.367)" fill="#fffffd"/>
      <path id="Path_876" data-name="Path 876" d="M571.469,511.55s24.766,6.1,29.44,20.1S582.6,546.01,582.6,546.01,568.6,521.244,571.469,511.55Z" transform="translate(-14.806 -21.547)" opacity="0.1"/>
      <path id="Path_877" data-name="Path 877" d="M660.393,607.09s-60.654,124.2-46.654,136.044S660.393,607.09,660.393,607.09Z" transform="translate(-11.483 -13.718)" opacity="0.1"/>
      <path id="Path_878" data-name="Path 878" d="M734,522.5s48.461,120.637,38.766,139.268,20.817,0,20.817,0Z" transform="translate(-1.455 -20.65)" opacity="0.1"/>
      <path id="Path_879" data-name="Path 879" d="M805.812,632.64s-163.677,7.9-115.931,58.869,145.728,2.164,145.728,2.164Z" transform="translate(-5.786 -11.624)" fill="#ffc9ca"/>
      <path id="Path_880" data-name="Path 880" d="M787.812,191.547a89.09,89.09,0,0,1-6.784,34.211c-1.5.173-3.008.281-4.457.346-2.164-4.75-1.006-10.235-.963-15.461s-1.883-11.371-6.914-12.778c-10.029-2.824-16.954,15.926-26.843,12.54-7.574-2.575-5.594-14.065-9.954-20.7-3.451-5.247-10.365-6.73-15.742-10.019-11.436-7.022-11.09-18.252-16.4-28.877-5.561-11.133-17.311-7.844-27.514-1.277-7.747,5-14.433,11.7-22.721,15.677-7.173,3.462-15.234,4.717-23.186,4.9a50.948,50.948,0,0,1-14.541-1.536A89.51,89.51,0,0,1,787.8,191.547Z" transform="translate(-11.471 -55.104)" opacity="0.1"/>
      <path id="Path_881" data-name="Path 881" d="M673.673,149.615c-7.758,5-14.433,11.685-22.721,15.688-7.173,3.451-15.234,4.706-23.186,4.89-9.738.216-20.222-1.493-26.876-8.526-6.113-6.492-7.574-16.478-4.988-24.993s8.785-15.58,16.067-20.7S627.7,107.322,632.526,100c2.553-3.873,3.787-8.439,5.907-12.561,6.784-13.189,22.039-20.33,36.786-21.217s29.364,3.506,43.408,8.266,28.2,10,43.018,10.982c6.6.411,13.459,0,19.583,2.5,8.234,3.343,13.633,11.339,17.311,19.475,4.122,9.175,6.686,19.194,6.254,29.213-.909,21.39-15.039,42.38-8.829,62.872,1.645,5.464,4.728,11.068,3.084,16.532-2.4,7.974-12.691,9.792-21.011,10.17-2.164-4.75-1.006-10.246-.963-15.461s-1.883-11.371-6.9-12.778c-10.041-2.8-16.965,15.915-26.832,12.54-7.52-2.586-5.572-14.065-9.943-20.7-3.451-5.258-10.376-6.73-15.742-10.019-11.436-7.022-11.09-18.252-16.4-28.877C695.647,139.748,683.887,143.037,673.673,149.615Z" transform="translate(-12.872 -58.051)" fill="#eb9497"/>
      <path id="Path_882" data-name="Path 882" d="M522.323,525.018l-8.255,2.878s3.246,48.818-7.574,62.818,35.531,48.807,35.531,48.807,63.532-.357,65.328-5.41-3.246-90.451-3.246-90.451S570,530.374,572.872,509.2c0,0-10.408,49.889-25.837,47.736S514.089,541.9,522.323,525.018Z" transform="translate(-20.234 -21.74)" fill="#fffffd"/>
      <ellipse id="Ellipse_43" data-name="Ellipse 43" cx="21.78" cy="19.919" rx="21.78" ry="19.919" transform="translate(507.845 510.462)" opacity="0.1"/>
      <path id="Path_883" data-name="Path 883" d="M574.253,533.249s-4.328-132.084-42-102.655-38.041,64.625-30.868,75.022,30.176,62.45,30.176,62.45h0a26.324,26.324,0,0,0,38.95-17.311Z" transform="translate(-20.815 -28.532)" fill="#ffc9ca"/>
      <path id="Path_884" data-name="Path 884" d="M807.847,216.181a3.18,3.18,0,0,0-.974-1.493c-1.861-1.7-5.864-2.294-11.9-1.774l.249,2.856c8.05-.692,9.64.909,9.846,1.179v.27l.249.357a12.074,12.074,0,0,1,2.164,9.521c-1.763,8.818-12.594,15.84-12.7,15.915l-.26.151-.162.249c-4.674,6.935-31.106,26.508-38.02,31.571l-.606-.692c-3.094,2.683-30.295,26.5-31.766,35.618-.952,5.724-7.4,7.942-9.738,8.558-2.467-1.872-10.473-8.244-14.639-15.385-3.906-6.719,11.815-19.832,13.2-24.95l-2.164-2.218c-.227.822-20.416,19.691-14.8,29.332,4.5,7.736,12.724,14.357,15.6,16.543-.92,8.353-6.643,57.4-15.439,69.018-10.928,14.444-20.113,87.238-19.1,112.653.9,22.58-5,65.231-24.69,83.548a31.56,31.56,0,0,1-26.042,8.656h-.476c-.281,0-28.845,2.921-52.842-17.311-19.637-16.521-30.76-43.484-33.075-80.162h-.476l-.195-10.679a20.828,20.828,0,1,0-3.105.249h.238l.195,10.614-.952.065c2.38,37.868,14.065,65.88,34.622,83.18a80.064,80.064,0,0,0,55.839,18.274,40.2,40.2,0,0,0,4.328.238,35.489,35.489,0,0,0,24.885-10.008c20.741-19.313,27.049-63.532,26.064-86.881-1.082-26.93,8.558-97.1,18.231-109.883,9.478-12.54,15.223-61.4,16.229-70.868,3.43-.963,11.187-4,12.507-11.9.952-5.713,19.118-23.316,30.295-33.064l-.335-.389c6.016-4.393,24.722-18.242,33.995-27.135,2.878-2.759,5.734-5.518,8.721-8.147,3.592-3.181,8.158-8.234,9.359-14.206A14.768,14.768,0,0,0,807.847,216.181Z" transform="translate(-19.398 -46.035)" opacity="0.1"/>
      <path id="Path_885" data-name="Path 885" d="M697.544,316.432c-.454-.314-11.231-8.028-16.63-17.311-5.6-9.64,14.585-28.5,14.8-29.321l2.164,2.218c-1.374,5.107-17.095,18.231-13.189,24.939,4.923,8.472,15.288,15.883,15.4,15.959Z" transform="translate(-5.886 -41.359)" fill="#353146"/>
      <path id="Path_886" data-name="Path 886" d="M736.888,277.193l-1.688-2.326c.346-.249,34.33-24.831,39.686-32.783l.173-.238.249-.162c.108-.076,10.939-7.087,12.7-15.915a12,12,0,0,0-2.164-9.51l-.249-.368v-.26c-.216-.281-1.807-1.872-9.857-1.179l-.249-2.867c6.048-.519,10.041.076,11.9,1.774a3.246,3.246,0,0,1,.985,1.5,14.779,14.779,0,0,1,2.445,11.479c-1.2,5.983-5.756,11.036-9.359,14.206-2.975,2.629-5.843,5.41-8.71,8.147C761.881,259.114,738.078,276.338,736.888,277.193Z" transform="translate(-1.357 -46.144)" fill="#e8f5ff"/>
      <rect id="Rectangle_100" data-name="Rectangle 100" width="2.867" height="17.43" transform="translate(515.426 437.765) rotate(-1.05)" fill="#e8f5ff"/>
      <circle id="Ellipse_44" data-name="Ellipse 44" cx="20.936" cy="20.936" r="20.936" transform="translate(494.256 398.481)" fill="#2f2f48"/>
      <circle id="Ellipse_45" data-name="Ellipse 45" cx="17.387" cy="17.387" r="17.387" transform="translate(497.805 402.029)" fill="#e8f5ff"/>
      <path id="Path_887" data-name="Path 887" d="M627.45,594.182a40.184,40.184,0,0,1-4.328-.227,80.183,80.183,0,0,1-55.839-18.274c-20.557-17.311-32.221-45.29-34.622-83.191l4.328-.27c2.315,36.678,13.438,63.651,33.086,80.162,24,20.178,52.55,17.311,52.832,17.311h.476a31.625,31.625,0,0,0,26.053-8.656c19.681-18.317,25.577-60.968,24.679-83.548-1.082-25.437,8.1-98.23,19.042-112.663,9.575-12.648,15.515-69.656,15.58-70.229l.162-1.623,1.6-.281c.1,0,9.445-1.774,10.614-8.764,1.515-9.11,28.672-32.924,31.755-35.618l2.824,3.246c-11.22,9.738-29.386,27.352-30.295,33.075-1.32,7.92-9.078,10.949-12.5,11.9-1.082,9.478-6.784,58.328-16.229,70.868C687,400.178,677.36,470.353,678.442,497.283c.93,23.348-5.312,67.579-26.053,86.88A35.5,35.5,0,0,1,627.45,594.182Z" transform="translate(-17.955 -41.481)" fill="#353146"/>
      <g id="Group_45" data-name="Group 45" transform="translate(582.733 77.098)" opacity="0.1">
        <path id="Path_888" data-name="Path 888" d="M783,162.63c1.774-6.557,3.917-13.157,5.41-19.8C786.625,149.506,784.471,156.073,783,162.63Z" transform="translate(-580.173 -128.862)"/>
        <path id="Path_889" data-name="Path 889" d="M780.262,215.21c-2.164-4.75-1.006-10.246-.963-15.461s-1.883-11.317-6.9-12.778c-10.041-2.8-16.965,15.926-26.832,12.54-7.574-2.586-5.572-14.065-9.943-20.7-3.451-5.258-10.365-6.73-15.732-10.019-11.447-7.022-11.1-18.252-16.4-28.877-5.572-11.144-17.311-7.855-27.525-1.277-7.758,5-14.433,11.7-22.721,15.688-7.173,3.451-15.234,4.706-23.186,4.89-9.683.227-20.222-1.493-26.876-8.526-5.128-5.41-6.979-13.34-5.918-20.773-.184.509-.346,1.017-.508,1.526-2.6,8.515-1.082,18.523,4.988,24.993,6.654,7.033,17.192,8.742,26.876,8.526,7.963-.184,16.013-1.439,23.2-4.89,8.309-4,14.985-10.69,22.721-15.688,10.214-6.578,21.964-9.867,27.525,1.277,5.3,10.625,4.966,21.855,16.4,28.877,5.41,3.246,12.28,4.761,15.742,10.019,4.328,6.654,2.413,18.112,9.943,20.7,9.857,3.376,16.781-15.342,26.821-12.54,5.02,1.407,6.957,7.574,6.9,12.778s-1.179,10.711.963,15.461c8.32-.379,18.61-2.164,21.022-10.17a11.652,11.652,0,0,0,.454-3.538C796.794,213.317,787.749,214.875,780.262,215.21Z" transform="translate(-595.536 -129.92)"/>
      </g>
      <path id="Path_890" data-name="Path 890" d="M960.511,464.382l12.561,13.286s10.051,73.215,15.072,80.064,16.878,34.092,5.745,54.552c0,0-3.592,11.133-1.439,15.8s-16.143,28-16.143,28-24.052,21.531-29.083,24.766-31.582,29.072-40.551,29.429-11.9,11.49-11.9,11.49l-50.614,1.8S816.2,722.1,810.12,726.051c0,0,3.246-42.715-27.99-70.716l39.837-14.357s15.082-6.492,19.746-13.276a24.377,24.377,0,0,1,11.9-8.969s11.122-7.9,11.479-12.2,13.6-9.586,13.6-9.586l-7.5-64L875.145,426.7s12.561-89.023,39.123-83.992S960.511,464.382,960.511,464.382Z" transform="translate(2.489 -35.401)" opacity="0.1"/>
      <path id="Path_891" data-name="Path 891" d="M964.511,464.382l12.561,13.286s10.051,73.215,15.072,80.064,16.878,34.092,5.745,54.552c0,0-3.581,11.133-1.428,15.8s-16.154,28-16.154,28-24.052,21.531-29.083,24.766-31.582,29.072-40.551,29.429-11.9,11.49-11.9,11.49l-50.614,1.8s-27.979-1.461-34.038,2.489c0,0,3.246-42.715-27.99-70.716l39.837-14.357s15.082-6.492,19.746-13.276a24.377,24.377,0,0,1,11.9-8.969s11.123-7.9,11.48-12.2,13.6-9.586,13.6-9.586l-7.5-64L879.145,426.7s12.561-89.023,39.123-83.992S964.511,464.382,964.511,464.382Z" transform="translate(2.816 -35.401)" fill="#fffffd"/>
      <path id="Path_892" data-name="Path 892" d="M907.84,554.634S944.81,544.9,954.5,556.8,907.84,554.634,907.84,554.634Z" transform="translate(12.79 -18.324)" opacity="0.1"/>
      <path id="Path_893" data-name="Path 893" d="M899.88,569.44c12.561,8.8,51.328,9.153,51.328,9.153Z" transform="translate(12.138 -16.803)" opacity="0.1"/>
      <path id="Path_894" data-name="Path 894" d="M917.46,610.08c1.082.357,26.648,27.644,37.381,19.388S917.46,610.08,917.46,610.08Z" transform="translate(13.579 -13.473)" opacity="0.1"/>
      <path id="Path_895" data-name="Path 895" d="M599.22,398.42s7.509,51.7,3.808,72.75,9.8,47.14,9.8,47.14Z" transform="translate(-12.501 -30.818)" opacity="0.1"/>
      <path id="Path_896" data-name="Path 896" d="M453.355,418.6c-8.656,6.784-14.974,22.84-19.551,40.487-7.985,30.781-10.592,66.475-10.592,66.475s-68.92-15.8-63.9-22.97c3.159-4.512-1.082-38.507-4.62-63.153-2.11-14.563-3.992-25.869-3.992-25.869S477.05,399.921,453.355,418.6Z" transform="translate(-32.867 -29.971)" fill="#ffc9ca"/>
      <path id="Path_897" data-name="Path 897" d="M453.355,417.265c-8.656,6.795-14.974,22.84-19.551,40.487a79.523,79.523,0,0,1-79.112-19.637c-2.11-14.574-3.992-25.88-3.992-25.88S477.05,398.6,453.355,417.265Z" transform="translate(-32.867 -30.08)" opacity="0.1"/>
      <path id="Path_898" data-name="Path 898" d="M491.9,386.816a79.718,79.718,0,1,1-17.538-49.856A79.718,79.718,0,0,1,491.9,386.816Z" transform="translate(-34.362 -38.3)" fill="#ffc9ca"/>
      <path id="Path_899" data-name="Path 899" d="M539.918,847.7H517.2l-1.915-40.13-2-41.536s5.161-.768,13.384-1.915l3.322-.444h.271c1.8,8.428,3.57,17.084,5.28,25.729a264.381,264.381,0,0,1,4.425,46.524c0,1.082,0,2.164,0,3.181C540.026,842,539.961,844.891,539.918,847.7Z" transform="translate(-19.543 -0.886)" opacity="0.1"/>
      <path id="Path_900" data-name="Path 900" d="M555.452,870.215H270.51c1.233-2.8,2.056-4.5,2.056-4.5s22.8-99.734,34.384-141.93a.547.547,0,0,0,0-.108,168.763,168.763,0,0,1,5.237-16.932h0a5.811,5.811,0,0,1,.508-1.082c5.734-9.326,12.919-19.378,2.867-33.735s-6.492-77.532-6.492-77.532,12.2-53.849,25.123-82.564a38.626,38.626,0,0,1,8.2-11.9,33.537,33.537,0,0,1,3.592-3.051h0a31.552,31.552,0,0,1,3.008-2l.206-.13a43.407,43.407,0,0,1,17.668-5.486,50.412,50.412,0,0,1,13.254.368c20.947,3.073,37.717,8.212,51.046,14.065,36.126,15.872,47.065,37.143,47.281,37.587h0l.087.184c1.45,3.386,22.656,52.9,30.295,76,1.98,6.016,3.062,10.246,2.629,11.4-2.164,5.734,16.511,77.522,16.511,77.522s8.656,34.622,17.311,75.206c.379,1.688.736,3.376,1.082,5.085,1.547,7.368,3.084,14.877,4.566,22.375a263.01,263.01,0,0,1,4.425,46.848Q555.593,863.247,555.452,870.215Z" transform="translate(-39.438 -23.396)" fill="#ce696c"/>
      <path id="Path_901" data-name="Path 901" d="M359.471,466.606s-19.659-7.574-19.421,3.917,4.793,16.987,3.354,18.664.714,11.728.714,11.728,26.562,0,38.766,5.5,57.192,16.51,62.937,19.865,27.049,18.393,27.049,18.393l1.915-28.477S452.768,498,416.641,488.677,359.471,466.606,359.471,466.606Z" transform="translate(-33.74 -25.431)" opacity="0.1"/>
      <path id="Path_902" data-name="Path 902" d="M359.471,465.276s-19.659-7.574-19.421,3.917,4.793,16.987,3.354,18.664.714,11.728.714,11.728,26.562,0,38.766,5.507,57.192,16.511,62.937,19.854,27.049,18.393,27.049,18.393l1.937-28.39s-22.018-18.187-58.144-27.514S359.471,465.276,359.471,465.276Z" transform="translate(-33.74 -25.54)" fill="#ce696c"/>
      <path id="Path_903" data-name="Path 903" d="M412.85,528.43s37.565,40.671,35.65,51.934S412.85,528.43,412.85,528.43Z" transform="translate(-27.773 -20.164)" opacity="0.1"/>
      <path id="Path_904" data-name="Path 904" d="M441.845,741.85s-14.6,29.678-6.7,27.763S441.845,741.85,441.845,741.85Z" transform="translate(-26.138 -2.674)" fill="none"/>
      <path id="Path_905" data-name="Path 905" d="M359.332,664.22s-27.536,25.372-35.65,26.811,6.221,6.221,15.548,2.4,29.213-13.871,29.213-13.871Z" transform="translate(-35.277 -9.036)" opacity="0.1"/>
      <path id="Path_906" data-name="Path 906" d="M552.65,847.9H488.436c-8.98-7.79-17.474-15.007-22.883-19.345-8.656-6.946-14.9-17.17-18.88-25.393-.9-1.872-1.677-3.625-2.337-5.215a86.988,86.988,0,0,1-3.116-8.385l47.552-28.239a74.353,74.353,0,0,1,7.39,7.227l.573.66c2.64,3.116,4.966,6.654,5.172,9.554.238,3.376,9.629,16.435,19.226,28.975,9.737,12.756,19.713,24.95,20.373,25.772h0s1.645,2.24,4.328,5.68C547.727,841.676,550.064,844.663,552.65,847.9Z" transform="translate(-25.449 -1.079)" fill="#ffc9ca"/>
      <path id="Path_907" data-name="Path 907" d="M474.355,336.957c-2.283,5.15-4.328,10.495-4.631,16.229-.855,16.554.53,53.567-17.8,61.877-9.078,4.09-18.793-4.89-28.747-5.107-7.163-.151-13.73,4.393-18.1,10.073s-7.087,12.421-10.257,18.848a128.744,128.744,0,0,1-9.943,16.77,42.184,42.184,0,0,1-3.679,4.642A79.7,79.7,0,1,1,474.355,337Z" transform="translate(-34.359 -38.297)" opacity="0.1"/>
      <path id="Path_908" data-name="Path 908" d="M474.717,352.767c-.866,16.554.53,53.567-17.809,61.866-9.078,4.09-18.793-4.88-28.747-5.1-7.162-.162-13.719,4.393-18.1,10.062s-7.076,12.421-10.257,18.858a129.005,129.005,0,0,1-9.943,16.77c-2.229,3.159-4.7,6.329-8.126,8.1-5.972,3.116-13.211,1.363-19.616-.638q-12.464-3.928-24.56-8.85a24.769,24.769,0,0,0,.281-3.679c-.238.454-.5.876-.757,1.331l-.508.887c-.92,1.623-1.818,3.246-2.64,4.912-.314.638-.617,1.3-.887,1.958A24.886,24.886,0,0,0,331.023,467c-.552,7.217,3.008,14.065,6.167,20.557,12.15,25.112,19.659,54.476,10.517,80.822-3.96,11.458-10.819,21.639-15.829,32.707a105.673,105.673,0,0,0-7.39,62.515c2.5,13.113,7.509,26.1,6.275,39.394-2.164,22.883-21.9,39.913-41.666,51.62-10.679,6.3-23.749,11.9-35.088,6.925,7.227-8.439,9.088-20.113,10.646-31.128q6.394-45.063,12.821-90.17,2.564-17.949,5.118-35.9c3.181-22.483,6.405-45.215,4.414-67.838-1.45-16.673-5.54-34.374,1.688-49.467,3.819-8,10.625-14.617,12.745-23.229,1.742-7,.119-14.444,1.266-21.574a36.723,36.723,0,0,1,3.159-9.348,45.93,45.93,0,0,1,7.249-11.057c-2.9-.844-5.6-2-7.249-4.425,4.652-3.029,5.356-9.857,3.246-14.985s-6.329-9.034-10.127-13.081-7.455-8.764-7.931-14.282c-.92-10.506,9.575-18.642,11.425-29.007,1.872-10.549-5.529-20.806-4.934-31.485.692-12.908,12.551-22.288,24.257-27.73a110.359,110.359,0,0,1,56.564-9.737c15.775,1.493,31.041,6.373,46.773,8.266,9.489,1.082,19.107,1.19,28.531,2.856s18.869,5.183,25.5,12.1C496.659,318.545,475.712,333.552,474.717,352.767Z" transform="translate(-40.79 -40.799)" fill="#a83732"/>
      <path id="Path_909" data-name="Path 909" d="M454.307,820.837c-5.518-2.391-15.558-.963-32.794-6.21s-20.557-28.964-20.557-28.964v-.076h0c-.206-.541-1.807-4.068-12.648-16.424-11.977-13.643-37.868-82.553-37.868-82.553s-22.959-24.658-22.234-33.746-4.079-33.27-3.6-60.319,51.685-44.987,51.685-44.987c98.6-17.473,75.379,96.2,72.75,104.808s11.014,31.874,11.014,31.874c-1.926,10.127,7.9,25.8,7.9,25.8s2.38,13.871,2.867,19.14a3.251,3.251,0,0,0,.162.714c1.58,4.966,14.455,9.467,19.691,12.2,5.507,2.878,23.219,28,23.219,28C517.709,788.551,459.8,823.26,454.307,820.837Z" transform="translate(-35.008 -18.746)" opacity="0.1"/>
      <path id="Path_910" data-name="Path 910" d="M456.956,816.833c-5.507-2.4-15.558-.963-32.783-6.221s-20.557-28.953-20.557-28.953v-.076h0c-.195-.552-1.807-4.068-12.648-16.424C378.991,751.515,353.1,682.6,353.1,682.6s-22.959-24.647-22.245-33.735-4.068-33.27-3.592-60.3,51.652-44.955,51.652-44.955c98.6-17.473,75.379,96.2,72.75,104.808s11.014,31.874,11.014,31.874c-1.926,10.127,7.9,25.8,7.9,25.8s2.38,13.871,2.878,19.14a2.716,2.716,0,0,0,.151.714c1.58,4.966,14.455,9.467,19.7,12.2,5.5,2.867,23.219,28,23.219,28C520.369,784.569,462.463,819.278,456.956,816.833Z" transform="translate(-34.79 -19.07)" fill="#ce696c"/>
      <path id="Path_911" data-name="Path 911" d="M376.8,598.32s43.072,45.442,54.314,45.442S376.8,598.32,376.8,598.32Z" transform="translate(-30.728 -14.437)" opacity="0.1"/>
      <path id="Path_912" data-name="Path 912" d="M451.17,802.887c-5.507-2.4-15.558-.963-32.783-6.221s-20.557-28.953-20.557-28.953v-.076h0c11.415-7.574,40.324-28.964,51.717-36.786,8.017-5.485,14.563-13.546,18.393-18.891,1.58,4.966,14.455,9.467,19.7,12.2,5.5,2.867,23.219,28,23.219,28C514.583,770.623,456.677,805.332,451.17,802.887Z" transform="translate(-29.004 -5.124)" fill="#c75f5f" opacity="0.45"/>
      <g id="Group_46" data-name="Group 46" transform="translate(213.22 256.616)" opacity="0.1">
        <path id="Path_913" data-name="Path 913" d="M302,406.923c.054.087.13.162.195.249.325-.411.66-.822,1.006-1.212a8.074,8.074,0,0,1-1.2.963Z" transform="translate(-250.077 -286.816)"/>
        <path id="Path_914" data-name="Path 914" d="M331.034,454.4c.454-6,3.668-11.3,6.676-16.575-1.969-.757-3.938-1.526-5.886-2.326a24.512,24.512,0,0,0,.281-3.668c-3.04,5.41-6.351,10.733-6.816,16.824-.552,7.227,3.008,14.065,6.167,20.557,12.161,25.1,19.659,54.465,10.517,80.822C338,561.48,331.153,571.672,326.144,582.74a105.63,105.63,0,0,0-7.379,62.5c2.478,13.124,7.5,26.1,6.264,39.394-2.164,22.883-21.888,39.913-41.666,51.609-8.082,4.782-17.528,9.164-26.562,8.85a32.727,32.727,0,0,1-2.791,3.841c11.35,5.009,24.409-.628,35.088-6.946,19.789-11.685,39.556-28.672,41.72-51.6,1.233-13.3-3.787-26.27-6.275-39.394a105.717,105.717,0,0,1,7.357-62.5c4.977-11.057,11.9-21.26,15.829-32.707,9.142-26.356,1.634-55.72-10.517-80.822C334.063,468.432,330.482,461.627,331.034,454.4Z" transform="translate(-254.01 -284.696)"/>
        <path id="Path_915" data-name="Path 915" d="M472.825,298.87a31.26,31.26,0,0,0-3.419-3.029c13.113,17.008-5.821,31.463-6.762,49.77-.844,16.554.541,53.578-17.8,61.866-9.067,4.1-18.793-4.88-28.737-5.1-7.173-.151-13.73,4.4-18.112,10.073s-7.076,12.421-10.246,18.848a129.577,129.577,0,0,1-9.954,16.77c-2.164,3.17-4.7,6.329-8.136,8.115-5.951,3.105-13.189,1.363-19.6-.649q-9.359-2.943-18.545-6.492a23.406,23.406,0,0,1-.281,3.365q12.107,4.934,24.571,8.85c6.405,2.012,13.643,3.754,19.6.649,3.43-1.785,5.918-4.955,8.136-8.125a127.453,127.453,0,0,0,9.943-16.759c3.181-6.427,5.864-13.189,10.257-18.858s10.939-10.214,18.1-10.062c9.954.216,19.681,9.2,28.747,5.1,18.339-8.288,16.943-45.312,17.8-61.866C469.384,332.085,490.331,317.09,472.825,298.87Z" transform="translate(-247.682 -295.84)"/>
      </g>
      <path id="Path_916" data-name="Path 916" d="M332.656,441.177c-.92,1.623-1.818,3.246-2.64,4.912-.314.638-.617,1.3-.887,1.958-5.669-5.713-19.475-19.291-27.179-23.5A46.144,46.144,0,0,1,309.2,413.49S327.56,423.2,332.656,441.177Z" transform="translate(-36.862 -29.583)" opacity="0.1"/>
      <path id="Path_917" data-name="Path 917" d="M333.164,440.507C328.912,421.259,309.2,410.84,309.2,410.84A45.926,45.926,0,0,0,301.95,421.9c8.125,4.447,23.1,19.356,28.066,24.409Z" transform="translate(-36.862 -29.8)" fill="#ff748e"/>
    </g>
  </g>
</svg>
