<svg width="856" height="856" viewBox="0 0 856 856" fill="none" xmlns="http://www.w3.org/2000/svg">
<circle cx="428" cy="428" r="428" fill="#4A2C81"/>
<path d="M208.545 225C210.865 228.917 214.035 232.15 217.776 234.413C221.331 236.503 225.279 237.674 229.316 237.837C248.041 238.922 319.408 232.579 351.624 242.541C388.946 254.08 421.738 302.37 422.309 350.837C422.728 386.722 405.507 423.777 382.024 444.456C380.604 445.705 379.469 446.619 378.719 447.234C353.978 467.48 327.973 470.77 302.304 474.041C281.253 476.722 259.963 476.236 239.034 472.598C241.879 484.704 248.125 502.403 263.546 521.046C263.546 521.046 264.105 521.722 264.787 522.526C278.91 539.08 307.079 563.682 346.24 574.094C365.809 579.291 381.235 579.139 388.974 579.084C433.273 578.761 490.443 579.578 565.858 581.363C569.844 582.012 573.507 584.125 576.241 587.352C578.808 590.443 580.421 594.334 580.854 598.477C580.216 615.305 579.575 632.13 578.93 648.954C576.887 642.715 573.46 637.123 568.956 632.675C565.176 628.983 560.718 626.212 555.878 624.547L370.109 621.982C315.13 621.221 252.805 589.825 217.412 525.719C195.439 485.928 193.37 444.291 194.125 419.842C214.443 428.182 247.186 438.119 287.459 435.244C319.094 432.989 331.854 428.633 338.228 424.978C343.428 421.992 374.643 403.471 380.794 366.227C382.775 353.753 381.894 340.94 378.227 328.928C376.813 324.334 372.077 309.541 360.28 298.191C343.657 282.222 322.298 282.021 299.251 281.814C285.704 281.686 240.169 282.782 238.228 282.953C234.488 283.282 225.089 283.52 216.026 277C212.863 274.732 210.07 271.905 207.762 268.635L208.545 225Z" fill="#F9CB25"/>
<path d="M615.536 427.926C630.772 427.926 654.949 417.063 654.949 387.91C654.949 375.932 649.766 365.855 639.523 357.873C649.766 349.892 654.949 339.815 654.949 327.837C654.949 298.678 630.772 287.814 615.536 287.814C589.257 287.814 572.836 310.156 548.883 340.68C545.366 345.164 541.726 349.819 537.79 354.748C537.097 355.614 536.716 356.724 536.716 357.873C536.716 359.022 537.097 360.133 537.79 360.999C541.704 365.946 545.366 370.583 548.883 375.067C573.96 407.022 589.822 427.926 615.536 427.926V427.926ZM546.887 357.861C549.906 354.047 552.758 350.41 555.537 346.894C580.597 314.963 594.401 297.374 615.536 297.374C629.878 297.374 646.187 307.591 646.187 327.837C646.187 338.407 640.596 346.864 629.162 353.688C628.471 354.097 627.894 354.702 627.492 355.439C627.091 356.175 626.878 357.016 626.878 357.873C626.878 358.73 627.091 359.571 627.492 360.308C627.894 361.045 628.471 361.65 629.162 362.059C640.619 368.883 646.187 377.339 646.187 387.91C646.187 407.881 630.118 418.373 615.536 418.373C594.401 418.373 580.597 400.784 555.537 368.852C552.741 365.312 549.906 361.675 546.887 357.886V357.861Z" fill="#F9CB25"/>
<path d="M415.303 434.512C427.85 413.904 436.045 390.519 439.295 366.043C445.273 364.808 451.41 364.808 457.388 366.043C472.63 369.224 482.073 379.63 485.451 383.767C472.82 394.38 467.861 411.183 472.63 424.557C476.544 435.572 485.792 440.544 488.526 441.884C479.841 447.678 469.976 451.037 459.809 451.663C435.979 453.009 419.34 438.296 415.303 434.512Z" fill="#F9CB25"/>
<path d="M541.961 355.546L596.537 297.362L618.528 292.957L640.579 303.016L650.325 330.762L646.187 345.487L630.84 357.874L646.187 374.543L650.325 391.871L642.631 411.428L631.863 418.386L611.158 424.698L589.386 415.9L541.961 355.546Z" fill="#F9CB25"/>
<path d="M596.353 436.718C577.085 432.49 533.647 450.603 514.38 446.375C495.112 442.147 476.409 421.322 476.409 421.322C476.409 421.322 501.391 432.289 516.376 435.555C531.36 438.82 536.672 434.208 538.07 426.659C541.464 408.29 513.362 399.157 499.317 393.57C486.692 381.824 480.564 373.379 457.416 366.044C457.015 367.528 456.493 368.969 455.856 370.351L422.773 440.416C442.678 456.087 477.243 481.572 497.047 485.916C525.948 492.258 610.767 467.175 612.707 456.672C614.647 446.168 605.953 438.826 596.353 436.718Z" fill="#F9CB25"/>
<path d="M420.123 278.645C432.667 299.246 440.861 322.622 444.115 347.09C450.091 348.324 456.226 348.324 462.202 347.09C477.449 343.909 486.888 333.503 490.27 329.366C477.64 318.747 472.675 301.949 477.449 288.546C481.363 277.536 490.611 272.565 493.345 271.224C483.992 265.915 473.636 263.045 463.091 262.841C440.916 262.53 425.261 274.386 420.123 278.645Z" fill="#F9CB25"/>
<path d="M420.123 278.645C432.667 299.246 440.861 322.622 444.115 347.09C450.091 348.324 456.226 348.324 462.202 347.09C477.449 343.909 486.888 333.503 490.27 329.366C477.64 318.747 472.675 301.949 477.449 288.546C481.363 277.536 490.611 272.565 493.345 271.224C484.661 265.432 474.795 262.073 464.629 261.446C440.799 260.142 424.143 274.862 420.123 278.645Z" fill="#F9CB25"/>
<path d="M601.139 276.415C581.877 280.644 538.433 262.53 519.166 266.759C499.898 270.987 481.173 291.83 481.173 291.83C481.173 291.83 506.155 280.863 521.145 277.603C536.135 274.344 541.441 278.95 542.833 286.499C546.227 304.868 518.126 314.001 504.086 319.581C491.461 331.334 485.333 339.778 462.152 347.114C461.753 345.63 461.233 344.189 460.597 342.806L427.564 272.76C447.469 257.083 482.034 231.604 501.838 227.254C530.734 220.918 615.559 245.995 617.499 256.499C619.439 267.002 610.773 274.326 601.139 276.415Z" fill="#F9CB25"/>
</svg>
